<?xml version="1.0" standalone="no"?>
<!DOCTYPE svg PUBLIC "-//W3C//DTD SVG 20010904//EN"
 "http://www.w3.org/TR/2001/REC-SVG-20010904/DTD/svg10.dtd">
<svg version="1.0" xmlns="http://www.w3.org/2000/svg"
 width="1407.000000pt" height="768.000000pt" viewBox="0 0 1407.000000 768.000000"
 preserveAspectRatio="xMidYMid meet">

<g transform="translate(0.000000,768.000000) scale(0.100000,-0.100000)"
fill="#000000" stroke="none">
<path d="M5940 5660 c0 -136 2 -150 18 -151 9 -1 69 -2 132 -3 l115 -1 5 -745
c5 -733 5 -745 26 -775 67 -97 94 -315 59 -477 -28 -133 -122 -281 -222 -352
-25 -17 -53 -36 -62 -43 -13 -10 63 -12 367 -13 l382 0 0 155 0 155 -115 0
-115 0 0 961 c0 546 4 959 9 957 5 -1 89 -93 186 -203 98 -110 219 -245 269
-300 51 -55 136 -151 190 -212 54 -62 102 -113 106 -113 4 0 36 30 71 68 81
85 591 657 643 722 22 27 43 47 47 44 5 -2 8 -436 9 -964 l0 -960 -114 0 -115
0 -3 -147 c-2 -82 -2 -151 0 -155 2 -5 311 -8 688 -8 l685 0 -3 153 -3 152
-132 3 -133 3 0 287 0 288 478 1 477 1 3 151 3 151 -479 0 c-263 0 -481 2
-483 4 -2 2 -3 122 -1 265 l3 261 614 0 615 0 0 155 0 155 -890 0 -890 0 0
188 0 187 130 -3 130 -3 0 156 0 155 -293 0 -293 0 -54 -62 c-30 -35 -106
-121 -169 -193 -123 -141 -214 -244 -301 -340 -30 -34 -93 -107 -140 -162 -47
-56 -90 -102 -96 -102 -7 -1 -24 15 -38 34 -15 19 -57 68 -94 108 -65 71 -117
130 -219 248 -26 31 -111 127 -188 214 -77 87 -157 180 -179 206 l-39 49 -298
0 -299 0 0 -150z m2670 -1545 l0 -705 -115 0 -115 0 0 705 0 705 115 0 115 0
0 -705z"/>
<path d="M4260 4980 l0 -150 603 0 c388 0 625 -4 663 -11 113 -20 203 -96 228
-191 34 -133 -38 -263 -174 -313 -38 -14 -102 -18 -387 -22 l-343 -6 0 212 0
211 -160 0 -160 0 0 -650 0 -650 -67 -2 c-38 -1 -97 -3 -133 -3 l-65 0 -3
-153 -3 -153 708 3 c702 4 709 4 783 27 116 35 209 84 279 148 52 46 72 74
102 138 20 44 42 104 49 134 26 113 -10 318 -74 420 -36 56 -122 127 -198 164
-37 18 -67 35 -67 38 -1 4 22 21 49 39 72 46 134 119 166 197 22 55 28 88 32
171 4 90 1 112 -22 186 -32 105 -93 190 -173 244 -107 72 -136 83 -283 108
-66 11 -223 14 -717 14 l-633 0 0 -150z m1372 -1004 c90 -23 164 -76 197 -141
23 -44 26 -62 26 -145 -1 -85 -3 -99 -27 -135 -33 -52 -51 -67 -119 -103 -74
-39 -115 -42 -527 -45 l-332 -2 0 291 c0 160 3 294 7 298 5 4 165 6 358 3 288
-3 362 -7 417 -21z"/>
<path d="M7130 3923 l0 -513 -115 0 -115 0 0 -155 0 -155 395 0 395 0 0 155 0
155 -120 0 -120 0 0 505 c0 278 -2 505 -5 506 -4 0 -38 -37 -77 -82 l-71 -82
-83 89 -83 89 -1 -512z"/>
<path d="M8149 2859 c-24 -48 -24 -49 4 -49 20 0 77 56 77 77 0 4 -14 8 -31 9
-25 1 -33 -5 -50 -37z"/>
<path d="M8831 2854 c-7 -19 -10 -38 -7 -42 13 -12 58 14 78 46 l20 32 -39 0
c-36 0 -40 -3 -52 -36z"/>
<path d="M4090 2591 c0 -99 3 -182 8 -184 4 -3 19 -3 35 0 l27 5 0 111 c0 64
4 107 9 102 5 -6 18 -35 29 -65 48 -128 61 -150 92 -150 26 0 30 5 58 83 58
158 56 157 62 27 l5 -115 30 0 30 0 3 183 2 182 -40 0 c-47 0 -46 1 -104 -134
-23 -55 -47 -101 -52 -103 -6 -2 -17 18 -26 44 -9 27 -30 80 -46 118 l-29 70
-46 3 -47 3 0 -180z"/>
<path d="M4651 2748 c-30 -80 -111 -324 -111 -335 0 -10 10 -13 32 -11 27 2
37 10 54 43 14 29 26 39 42 38 12 0 42 -1 65 -2 41 -1 45 -3 59 -40 14 -35 19
-39 52 -39 20 0 36 3 36 6 0 10 -91 273 -110 318 -19 43 -20 44 -65 44 -38 0
-47 -4 -54 -22z m91 -155 c10 -23 18 -44 18 -46 0 -2 -22 -5 -50 -6 -27 0 -50
2 -50 5 0 5 25 89 37 124 4 11 8 8 16 -10 6 -14 19 -44 29 -67z"/>
<path d="M5020 2763 c-67 -25 -109 -96 -110 -181 0 -85 46 -154 118 -176 12
-4 22 -13 22 -20 0 -8 10 -20 23 -29 l22 -15 -27 -11 c-38 -15 -37 -41 2 -41
57 0 93 67 49 90 -18 10 -16 13 32 38 51 26 96 83 83 104 -11 18 -64 8 -79
-16 -25 -38 -65 -50 -108 -33 -46 20 -57 42 -57 115 0 51 4 63 26 86 45 44
144 29 144 -22 0 -7 16 -12 40 -12 22 0 40 2 40 5 0 22 -47 89 -73 105 -31 19
-111 26 -147 13z"/>
<path d="M5370 2751 c-110 -59 -111 -274 -2 -330 59 -30 95 -34 138 -16 82 34
114 87 114 188 0 73 -22 116 -79 154 -43 29 -121 31 -171 4z m162 -108 c58
-132 -79 -249 -153 -131 -41 66 -9 180 55 190 44 7 78 -13 98 -59z"/>
<path d="M5684 2757 c-3 -9 -4 -91 -2 -184 l3 -168 35 0 35 0 3 108 c1 59 6
107 10 107 4 -1 36 -44 72 -97 80 -119 86 -124 118 -120 l27 4 0 179 0 179
-31 3 c-31 3 -31 3 -38 -57 -4 -33 -4 -83 0 -110 4 -34 3 -51 -4 -51 -6 0 -31
30 -57 68 -102 150 -99 147 -133 150 -21 2 -34 -2 -38 -11z"/>
<path d="M6060 2585 l0 -185 35 0 35 0 0 116 c0 75 4 113 10 109 6 -3 35 -43
65 -88 79 -118 87 -127 123 -132 l32 -4 0 185 0 185 -32 -3 -33 -3 -5 -115
c-5 -108 -6 -113 -20 -90 -8 14 -44 67 -80 118 -59 84 -67 92 -97 92 l-33 0 0
-185z"/>
<path d="M6437 2764 c-4 -4 -7 -85 -7 -181 l0 -173 115 0 c63 0 118 0 123 0 4
0 7 12 7 28 l0 27 -82 3 -83 3 0 44 0 45 81 0 80 0 -3 28 c-3 27 -4 27 -80 30
l-78 3 0 44 0 45 86 0 85 0 -3 28 -3 27 -116 3 c-63 1 -118 -1 -122 -4z"/>
<path d="M6744 2757 c-2 -7 -3 -89 -2 -182 l3 -170 35 0 35 0 3 63 c3 61 3 62
32 62 25 0 33 -8 62 -62 31 -60 35 -63 71 -64 20 -1 37 3 37 8 0 5 -14 36 -30
69 l-31 60 25 29 c31 38 39 64 32 103 -15 74 -60 96 -194 97 -50 0 -74 -4 -78
-13z m176 -67 c24 -24 26 -53 5 -74 -18 -17 -78 -31 -94 -21 -12 7 -15 97 -4
108 14 15 74 6 93 -13z"/>
<path d="M7082 2589 l3 -182 33 -2 32 -3 0 184 0 184 -35 0 -35 0 2 -181z"/>
<path d="M7227 2763 c-10 -9 -9 -351 1 -355 4 -2 60 -2 125 0 l117 3 0 30 0
29 -85 0 -85 0 0 45 0 45 75 0 75 0 0 30 0 30 -75 0 -75 0 0 46 0 47 85 -7 85
-6 0 35 0 35 -118 0 c-65 0 -122 -3 -125 -7z"/>
<path d="M7734 2756 c-66 -30 -101 -108 -89 -201 11 -92 80 -155 169 -155 94
0 151 51 151 137 0 29 -3 53 -7 53 -5 0 -37 0 -73 0 -63 0 -65 -1 -65 -25 0
-22 4 -25 40 -25 46 0 49 -8 16 -46 -18 -22 -32 -28 -61 -27 -58 2 -88 37 -93
111 -4 55 -2 62 26 93 39 43 88 46 130 6 19 -18 39 -27 61 -27 29 0 32 2 26
23 -4 12 -22 38 -41 57 -30 31 -40 34 -96 37 -39 2 -75 -2 -94 -11z"/>
<path d="M8030 2590 l0 -180 109 0 c60 0 117 -3 126 -6 14 -6 16 -1 13 27 l-3
34 -82 3 -83 3 0 44 0 45 81 0 c70 0 80 2 75 16 -3 9 -6 22 -6 30 0 11 -15 12
-75 7 l-75 -6 0 52 0 51 86 0 85 0 -3 28 -3 27 -122 3 -123 3 0 -181z"/>
<path d="M8344 2757 c-2 -7 -3 -89 -2 -182 l3 -169 35 0 35 -1 -1 112 c-1 66
2 110 7 107 5 -3 41 -52 80 -110 55 -83 75 -104 94 -105 14 -1 30 -2 35 -3 7
-1 11 61 12 179 l1 180 -34 0 -34 0 -5 -114 -5 -114 -79 117 c-70 103 -82 116
-108 116 -16 0 -31 -6 -34 -13z"/>
<path d="M8715 2760 c-10 -17 3 -355 14 -354 6 1 61 2 122 3 l110 1 -3 28 c-3
27 -4 27 -86 30 l-83 3 3 42 3 42 78 3 c66 2 78 5 73 18 -3 9 -6 22 -6 30 0
12 -14 15 -72 13 l-73 -2 0 43 0 43 40 2 c125 3 125 3 125 30 0 14 -4 25 -8
25 -4 0 -58 2 -120 5 -63 3 -113 1 -117 -5z"/>
<path d="M9027 2763 c-4 -3 -7 -84 -7 -180 l0 -173 40 0 40 0 0 60 c0 60 0 60
30 60 25 0 33 -7 54 -49 14 -27 32 -56 40 -64 15 -14 90 -22 84 -8 -2 3 -18
35 -37 70 -33 64 -33 65 -13 80 65 52 53 159 -22 195 -34 16 -195 24 -209 9z
m171 -69 c14 -10 22 -26 22 -44 0 -37 -32 -60 -82 -60 l-38 0 0 60 0 60 38 0
c21 0 48 -7 60 -16z"/>
<path d="M9462 2753 c-5 -10 -24 -61 -42 -113 -18 -52 -43 -124 -57 -159 -26
-70 -22 -84 22 -79 28 3 34 10 53 58 9 24 12 25 80 22 69 -4 71 -4 77 -33 8
-34 20 -43 58 -45 17 -1 27 3 27 12 0 19 -60 193 -115 337 -5 12 -18 17 -51
17 -31 0 -46 -5 -52 -17z m84 -150 c13 -32 24 -59 24 -60 0 -2 -22 -3 -50 -3
-27 0 -50 5 -50 10 0 6 8 37 17 70 19 69 25 68 59 -17z"/>
<path d="M9742 2588 l3 -183 106 -2 c115 -3 137 5 124 47 -6 18 -15 20 -80 20
l-73 0 -7 93 c-3 50 -5 117 -3 147 l3 55 -38 3 -37 3 2 -183z"/>
<path d="M10032 2589 l3 -182 120 1 120 1 0 28 0 28 -82 3 -83 3 0 45 0 45 68
-2 c81 -2 91 2 84 36 -4 24 -7 25 -78 25 l-74 0 0 46 0 46 83 -3 82 -4 0 30 0
30 -123 3 -122 3 2 -182z"/>
<path d="M5996 2210 c-7 -13 0 -360 7 -360 187 -1 187 -1 218 29 41 41 41 98
0 137 -29 27 -29 28 -10 43 11 9 22 32 25 52 5 29 1 41 -19 65 -24 27 -30 29
-122 34 -53 3 -98 3 -99 0z m182 -52 c21 -27 22 -55 4 -78 -15 -19 -32 -24
-81 -28 l-61 -4 0 61 0 61 64 0 c39 0 67 -5 74 -12z m12 -163 c25 -22 26 -56
3 -83 -13 -15 -36 -22 -85 -27 l-68 -7 0 65 c0 35 2 66 4 68 2 2 32 4 65 3 44
-1 67 -6 81 -19z"/>
<path d="M6324 2211 c-2 -2 -4 -85 -4 -183 l0 -178 115 0 c94 0 115 3 115 15
0 11 -19 15 -87 17 l-88 3 -3 62 -3 62 83 3 c66 2 83 6 83 18 0 12 -17 16 -82
18 l-81 3 -4 59 -3 59 90 3 c72 2 90 6 90 18 0 12 -21 16 -108 20 -60 3 -111
3 -113 1z"/>
<path d="M6972 2064 l3 -156 32 -28 c43 -39 108 -48 169 -25 66 25 74 47 74
215 0 133 -1 140 -20 140 -19 0 -20 -7 -20 -136 l0 -136 -29 -29 c-20 -20 -40
-29 -61 -29 -38 0 -86 24 -100 49 -5 11 -10 78 -10 149 0 129 -3 142 -37 142
-2 0 -3 -70 -1 -156z"/>
<path d="M7583 2209 c-6 -6 -32 -75 -59 -155 -27 -79 -52 -144 -55 -144 -7 0
-45 99 -85 223 -20 61 -29 77 -44 77 -24 0 -25 -18 -4 -68 16 -38 104 -282
104 -289 0 -2 12 -3 27 -1 24 3 30 14 75 138 27 74 56 149 64 167 8 17 14 38
14 47 0 18 -21 21 -37 5z"/>
<path d="M7756 2205 c-9 -9 -16 -22 -16 -30 0 -7 -25 -79 -55 -160 -30 -80
-55 -150 -55 -156 0 -5 8 -9 19 -9 18 0 30 21 46 78 6 20 12 22 85 22 l78 0
17 -49 c11 -34 23 -51 38 -55 11 -3 23 -4 25 -2 2 3 -13 48 -34 103 -20 54
-45 119 -54 145 -27 70 -54 121 -66 125 -7 2 -19 -3 -28 -12z m52 -112 c39
-112 42 -103 -28 -103 -46 0 -61 3 -58 13 3 6 15 42 27 80 13 37 26 67 30 67
5 0 18 -26 29 -57z"/>
<path d="M8200 2213 c-8 -3 -27 -17 -42 -31 -21 -19 -28 -35 -28 -64 0 -50 22
-70 102 -97 35 -12 74 -28 86 -37 51 -36 7 -104 -67 -104 -37 0 -49 5 -77 36
-34 36 -54 38 -54 4 0 -25 53 -68 95 -76 50 -9 100 3 135 32 24 20 30 34 30
64 0 57 -29 86 -110 111 -77 23 -105 47 -95 79 18 57 110 65 152 14 14 -18 27
-25 37 -21 15 6 15 9 1 38 -24 46 -108 73 -165 52z"/>
<path d="M6722 2188 c-7 -13 -32 -77 -56 -143 -24 -66 -51 -137 -60 -157 l-16
-38 28 0 c24 0 30 6 45 50 l18 50 73 0 74 0 18 -50 c18 -51 32 -64 53 -51 9 6
4 30 -22 97 -18 49 -49 128 -67 177 -27 73 -36 87 -55 87 -12 0 -27 -10 -33
-22z m63 -111 c14 -37 25 -72 25 -77 0 -6 -25 -10 -56 -10 -56 0 -56 0 -50 28
9 36 48 134 52 129 2 -2 15 -33 29 -70z"/>
<path d="M8000 2030 c0 -173 1 -180 20 -180 19 0 20 7 20 180 0 173 -1 180
-20 180 -19 0 -20 -7 -20 -180z"/>
<path d="M1736 1645 c-76 -26 -106 -77 -106 -177 0 -71 21 -120 64 -153 21
-15 45 -20 98 -22 50 -1 75 -6 89 -19 14 -13 24 -15 40 -8 l20 9 -22 29 c-15
19 -18 30 -11 35 6 4 21 28 33 55 36 83 10 187 -61 237 -34 23 -98 29 -144 14z
m127 -45 c4 0 5 5 1 11 -5 8 -2 9 12 1 11 -6 19 -21 20 -34 1 -13 5 -31 9 -40
4 -11 3 -18 -4 -18 -6 0 -12 10 -13 23 0 12 -2 29 -2 37 -1 8 -9 14 -17 12 -9
-1 -22 6 -30 15 -11 15 -11 16 1 6 8 -7 18 -13 23 -13z m-3 -35 c21 -22 25
-35 25 -89 0 -35 3 -62 8 -59 4 2 7 13 7 24 0 11 4 18 9 15 5 -3 7 -16 4 -29
-5 -22 -5 -22 10 -2 16 19 16 19 11 -9 -7 -40 -38 -81 -62 -83 -13 -1 -31 12
-49 35 l-28 37 27 -17 c36 -24 45 -23 23 2 -10 11 -29 20 -42 20 -27 0 -29 -7
-7 -31 21 -23 11 -38 -21 -31 -33 6 -73 54 -81 98 -22 117 89 196 166 119z
m-190 -11 c-15 -37 -11 -43 6 -11 21 38 26 30 13 -18 -6 -22 -8 -59 -5 -82 5
-37 3 -43 -13 -43 -33 0 -43 98 -16 150 19 37 28 39 15 4z m260 -17 c0 -18 -2
-19 -10 -7 -13 20 -13 43 0 35 6 -3 10 -16 10 -28z m-15 -246 c3 -7 3 -16 1
-18 -6 -6 -46 35 -46 47 0 14 38 -11 45 -29z"/>
<path d="M2503 1652 l-113 -3 0 -179 0 -180 121 0 c121 0 121 0 115 23 -3 12
-6 25 -6 30 0 4 -36 7 -80 7 l-80 0 0 37 c0 29 -3 34 -12 25 -7 -7 -20 -12
-30 -12 -16 0 -18 10 -18 86 0 54 4 83 10 79 6 -3 10 -14 11 -23 0 -14 2 -13
9 3 7 17 9 17 9 3 2 -31 20 -19 23 15 l3 32 79 0 79 0 1 28 c1 16 -1 29 -4 30
-3 1 -56 1 -117 -1z m84 -318 c-3 -3 -12 -4 -19 -1 -8 3 -5 6 6 6 11 1 17 -2
13 -5z m23 -9 c0 -10 -10 -15 -32 -14 -22 1 -26 3 -13 6 11 3 24 9 30 14 13
12 15 11 15 -6z"/>
<path d="M10487 1646 c-50 -18 -67 -34 -88 -81 -40 -87 -13 -214 53 -255 40
-24 126 -27 169 -5 30 16 69 68 69 93 0 7 -14 12 -35 12 -23 0 -35 -5 -35 -13
0 -25 -36 -47 -77 -47 -129 0 -129 239 0 243 37 1 77 -25 77 -50 0 -9 13 -13
39 -13 39 0 40 0 30 28 -28 79 -118 118 -202 88z m-56 -139 c-10 -9 -11 -6 -6
16 10 38 -2 34 -14 -5 l-9 -33 -1 28 c-1 16 4 38 11 50 12 21 12 21 21 -11 7
-24 7 -36 -2 -45z m11 -102 c3 -13 1 -22 -3 -19 -5 3 -9 -1 -9 -8 -1 -8 -6 -6
-15 6 -8 11 -15 27 -14 35 0 11 2 12 6 4 2 -7 9 -13 14 -13 4 0 5 7 2 17 -4
10 -2 14 4 10 6 -4 13 -18 15 -32z m228 -22 c-1 -22 -23 -53 -39 -53 -6 0 -11
-4 -11 -9 0 -5 -9 -11 -20 -14 -28 -7 -21 20 16 60 32 36 54 42 54 16z"/>
<path d="M823 1469 l2 -181 107 4 c99 3 110 5 133 28 13 14 27 41 30 60 5 32
4 33 -4 7 -14 -41 -32 -61 -42 -46 -6 10 -11 10 -23 0 -19 -16 -21 -1 -3 19 9
10 7 10 -9 -1 -14 -9 -40 -13 -73 -11 l-51 4 0 49 0 49 51 0 c28 0 60 -5 72
-11 19 -9 19 -8 -3 10 -13 10 -27 18 -30 16 -3 -1 -14 1 -25 6 -19 7 -19 8 3
8 12 1 24 0 25 -1 2 -2 11 3 21 11 14 12 16 12 11 -2 -4 -10 1 -18 15 -22 11
-4 30 -16 40 -28 11 -11 20 -16 20 -10 0 13 -33 43 -48 43 -19 0 -14 10 13 32
19 15 25 29 25 56 -1 72 -36 92 -163 92 l-95 0 1 -181z m186 151 c-6 -5 -18
-6 -26 -3 -19 8 -16 11 13 11 17 0 22 -3 13 -8z m-9 -40 c24 -24 24 -29 4 -58
-12 -18 -25 -22 -65 -22 l-49 0 0 43 c0 24 3 47 7 50 15 15 83 7 103 -13z
m-127 -210 c3 -11 1 -23 -4 -26 -5 -3 -9 6 -9 20 0 31 6 34 13 6z"/>
<path d="M1158 1471 l3 -181 34 0 33 0 0 53 c-1 77 -1 77 32 77 27 0 33 -7 62
-65 31 -63 34 -65 70 -65 21 0 38 2 38 5 0 3 -16 34 -35 69 l-35 64 30 30 c42
43 43 108 1 154 -29 33 -30 33 -133 36 l-103 4 3 -181z m225 133 c17 -17 25
-34 23 -48 -3 -11 -5 -25 -5 -30 -1 -5 -4 -6 -8 -2 -4 3 -13 -4 -20 -16 -13
-23 -13 -23 -7 3 7 35 -18 84 -54 103 l-27 15 36 1 c26 0 44 -7 62 -26z m-55
-20 c26 -18 29 -60 5 -86 -11 -13 -30 -18 -65 -18 l-48 0 0 53 c0 30 3 57 7
60 12 13 79 7 101 -9z m-119 -31 c0 -25 -1 -25 -8 -8 -5 11 -7 23 -4 28 8 14
13 7 12 -20z m171 -214 c0 18 17 4 23 -19 4 -16 1 -19 -16 -16 -12 3 -25 5
-29 5 -5 1 -8 11 -8 22 0 18 2 19 15 9 11 -9 15 -9 15 -1z"/>
<path d="M1490 1470 l0 -180 35 0 35 0 0 180 0 180 -35 0 -35 0 0 -180z m30
156 c0 -3 -4 -8 -10 -11 -5 -3 -10 -1 -10 4 0 6 5 11 10 11 6 0 10 -2 10 -4z
m22 -268 c-5 -21 -21 -24 -23 -5 -1 6 -5 -1 -9 -18 -6 -26 -8 -22 -9 23 -1 33
3 51 9 47 6 -3 13 2 17 12 6 15 9 12 13 -12 3 -16 4 -38 2 -47z"/>
<path d="M2020 1511 c0 -125 2 -141 21 -165 43 -54 130 -72 202 -42 57 23 65
46 68 204 l4 142 -32 0 -33 0 0 -97 c-1 -113 -12 -172 -36 -190 -27 -19 -77
-16 -102 7 -20 19 -22 30 -22 150 l0 130 -35 0 -35 0 0 -139z m50 112 c-1 -21
-29 -62 -31 -45 -1 7 -1 21 -1 32 0 29 0 30 17 30 8 0 15 -8 15 -17z m210 -33
c0 -5 -4 -10 -10 -10 -5 0 -10 5 -10 10 0 6 5 10 10 10 6 0 10 -4 10 -10z m19
-77 c0 -45 -3 -61 -8 -48 -5 11 -7 23 -5 27 3 4 0 9 -6 13 -5 3 -10 12 -10 18
0 7 4 6 10 -3 7 -11 10 -5 10 23 0 20 2 37 5 37 3 0 5 -30 4 -67z m-125 -199
c2 -6 -2 -11 -10 -11 -8 0 -12 3 -9 5 3 3 -13 13 -35 23 -22 10 -40 22 -40 28
0 12 88 -30 94 -45z m-104 38 c0 -4 12 -15 28 -24 15 -10 22 -18 15 -18 -7 0
-25 11 -40 25 -15 13 -22 25 -15 25 6 0 12 -3 12 -8z"/>
<path d="M2810 1469 l0 -181 93 4 c113 5 151 23 185 88 19 37 23 56 19 102
-10 119 -72 167 -214 168 l-83 0 0 -181z m185 151 c-3 -5 0 -8 7 -5 17 7 65
-34 73 -62 9 -31 -15 -24 -56 18 -19 19 -53 39 -75 46 l-39 10 48 2 c30 1 46
-3 42 -9z m10 -54 c13 -13 27 -40 30 -60 17 -90 -29 -156 -111 -156 l-44 0 0
120 0 120 50 0 c40 0 56 -5 75 -24z m-120 -247 l50 -6 -57 -1 -58 -2 1 38 c1
36 2 36 8 7 6 -27 10 -31 56 -36z"/>
<path d="M3171 1513 c-1 -76 2 -157 5 -180 l6 -43 114 0 114 0 0 30 0 30 -86
0 -85 0 3 48 3 47 78 3 c74 3 77 4 77 27 0 23 -3 24 -77 27 l-78 3 -6 50 c-4
33 -6 39 -7 19 -2 -36 -9 -45 -28 -37 -9 3 -14 21 -14 54 l0 48 55 0 c30 -1
52 -5 49 -10 -3 -5 -23 -9 -45 -9 -21 0 -39 -4 -39 -9 0 -5 45 -9 100 -10
l100 -2 0 26 0 25 -119 0 -118 0 -2 -137z m197 -40 c-10 -2 -28 -2 -40 0 -13
2 -5 4 17 4 22 1 32 -1 23 -4z m-113 -144 c11 -4 34 -10 50 -12 17 -2 -3 -5
-42 -6 -55 -1 -73 2 -73 12 0 28 14 29 65 6z"/>
<path d="M3228 1323 c7 -3 16 -2 19 1 4 3 -2 6 -13 5 -11 0 -14 -3 -6 -6z"/>
<path d="M3590 1470 l0 -180 35 0 35 0 0 59 0 58 61 7 c76 9 101 20 122 56 33
56 17 128 -35 160 -27 16 -51 20 -125 20 l-93 0 0 -180z m203 133 c11 -10 17
-12 13 -5 -4 6 -3 12 3 12 6 0 17 -13 25 -28 13 -25 13 -29 -3 -39 -10 -6 -18
-17 -18 -25 0 -7 -3 -24 -8 -38 -7 -22 -6 -23 9 -11 24 20 19 5 -6 -19 -17
-16 -35 -20 -85 -20 -39 0 -63 4 -63 11 0 7 15 10 41 7 85 -8 133 87 74 147
-29 28 -13 35 18 8z m-23 -23 c24 -24 26 -67 3 -92 -11 -13 -30 -18 -65 -18
l-48 0 0 58 c0 32 3 62 7 65 15 15 83 7 103 -13z m-123 -88 c-1 -42 -2 -43
-12 -18 -6 15 -14 24 -16 21 -3 -3 -6 2 -6 10 0 8 5 11 10 8 6 -4 8 0 5 9 -4
9 0 15 8 15 10 0 13 -13 11 -45z m-17 -43 c0 -5 -4 -9 -10 -9 -5 0 -10 7 -10
16 0 8 5 12 10 9 6 -3 10 -10 10 -16z"/>
<path d="M3981 1628 c-17 -45 -111 -326 -111 -332 0 -3 16 -6 35 -6 31 0 35 3
46 40 l12 40 73 0 73 0 12 -40 c10 -32 17 -40 36 -40 14 0 21 4 18 10 -4 6
-10 8 -15 5 -10 -6 -20 7 -25 35 -2 11 0 20 6 20 5 0 9 -6 9 -14 0 -8 4 -18
10 -21 6 -4 7 1 3 12 -6 16 -5 16 10 4 9 -7 17 -22 17 -32 0 -11 4 -19 10 -19
9 0 -18 82 -88 275 l-30 80 -46 3 c-40 3 -47 0 -55 -20z m89 8 c0 -2 7 -20 15
-40 10 -24 12 -36 4 -36 -6 0 -13 9 -16 21 -4 16 -8 17 -14 7 -7 -10 -9 -10
-9 0 0 6 -7 12 -15 12 -8 0 -15 -5 -15 -11 0 -6 -7 -3 -16 6 -24 24 -10 45 31
45 19 0 35 -2 35 -4z m-9 -119 c9 -29 20 -60 24 -69 6 -16 1 -18 -44 -18 -28
0 -51 3 -51 6 0 19 43 144 48 139 3 -3 14 -29 23 -58z m49 12 c0 -6 -4 -7 -10
-4 -5 3 -10 11 -10 16 0 6 5 7 10 4 6 -3 10 -11 10 -16z m10 -29 c0 -5 -2 -10
-4 -10 -3 0 -8 5 -11 10 -3 6 -1 10 4 10 6 0 11 -4 11 -10z m-173 -92 c-22
-14 -28 -8 -16 13 9 17 13 19 20 8 5 -8 3 -16 -4 -21z"/>
<path d="M4260 1470 l0 -180 35 0 34 0 3 68 3 67 30 0 c27 0 33 -7 63 -67 32
-67 33 -68 73 -68 l39 0 -37 69 -38 70 27 28 c51 54 46 132 -12 171 -28 19
-46 22 -126 22 l-94 0 0 -180z m154 120 c39 -14 53 -53 32 -85 -14 -21 -24
-25 -66 -25 l-50 0 0 53 c0 30 3 57 7 60 9 10 48 8 77 -3z m92 -98 c-11 -10
-14 3 -8 33 l7 30 3 -28 c2 -16 1 -31 -2 -35z m-16 29 c0 -13 -40 -61 -51 -61
-17 0 -9 19 11 25 11 3 20 15 20 26 0 10 5 19 10 19 6 0 10 -4 10 -9z m-20
-69 l-22 -18 22 -43 c12 -24 19 -45 16 -48 -3 -3 -8 2 -12 11 -3 9 -10 16 -16
16 -5 0 -6 -5 -2 -12 4 -7 3 -8 -5 -4 -17 11 -43 66 -31 66 13 0 13 27 0 35
-6 4 -7 -1 -3 -11 5 -14 3 -16 -11 -11 -10 4 -26 7 -37 7 -10 0 -19 4 -19 9 0
12 68 19 79 8 6 -6 18 -3 32 7 30 21 38 11 9 -12z"/>
<path d="M4435 1400 c3 -5 8 -10 11 -10 2 0 4 5 4 10 0 6 -5 10 -11 10 -5 0
-7 -4 -4 -10z"/>
<path d="M4590 1470 l0 -180 35 0 34 0 3 123 3 122 49 -117 c40 -97 52 -117
72 -121 28 -5 26 -7 85 146 18 48 35 87 38 87 3 0 6 -53 6 -117 l0 -118 33 -3
32 -3 0 180 0 181 -44 0 -44 0 -48 -117 c-26 -65 -50 -121 -54 -126 -3 -4 -18
24 -33 61 -15 38 -38 94 -52 126 -25 56 -25 56 -69 56 l-45 0 -1 -180z m104
104 c3 -8 2 -12 -4 -9 -6 3 -10 10 -10 16 0 14 7 11 14 -7z m-25 -8 c10 -12 8
-13 -10 -9 -18 5 -20 3 -15 -15 4 -11 3 -23 -2 -25 -6 -5 -8 25 -3 56 2 12 18
8 30 -7z m-52 -48 c-3 -7 -5 -2 -5 12 0 14 2 19 5 13 2 -7 2 -19 0 -25z m350
0 c-3 -7 -5 -2 -5 12 0 14 2 19 5 13 2 -7 2 -19 0 -25z m3 -179 c0 -6 -4 -7
-10 -4 -5 3 -10 11 -10 16 0 6 5 7 10 4 6 -3 10 -11 10 -16z m-166 -13 c-7
-18 -34 -22 -34 -5 0 5 5 7 10 4 6 -3 13 1 16 10 4 9 8 14 10 12 3 -2 2 -12
-2 -21z m133 -8 c-3 -8 -6 -5 -6 6 -1 11 2 17 5 13 3 -3 4 -12 1 -19z"/>
<path d="M5054 1634 c3 -9 6 -90 6 -180 l0 -164 115 0 115 0 0 30 0 30 -86 0
-85 0 3 48 3 47 78 3 c74 3 77 4 77 27 0 23 -3 24 -77 27 l-78 3 -3 43 -3 42
58 2 c32 1 70 2 86 2 23 1 27 5 27 28 l0 28 -121 0 c-106 0 -120 -2 -115 -16z
m193 -10 c-3 -3 -12 -4 -19 -1 -8 3 -5 6 6 6 11 1 17 -2 13 -5z"/>
<path d="M5360 1470 l0 -180 35 0 35 0 0 115 c0 103 8 140 23 102 3 -8 37 -59
77 -115 63 -90 75 -102 101 -102 l29 0 0 180 0 180 -34 0 -34 0 2 -115 c0 -63
-1 -115 -4 -115 -4 0 -42 52 -85 115 -74 107 -82 115 -112 115 l-33 0 0 -180z
m290 160 c0 -5 -4 -10 -10 -10 -5 0 -10 5 -10 10 0 6 5 10 10 10 6 0 10 -4 10
-10z m-257 -40 c-3 -11 -7 -20 -9 -20 -2 0 -4 9 -4 20 0 11 4 20 9 20 5 0 7
-9 4 -20z m24 -2 c-3 -8 -6 -5 -6 6 -1 11 2 17 5 13 3 -3 4 -12 1 -19z m36
-10 c6 -22 5 -22 -8 -4 -17 22 -20 40 -6 32 5 -3 11 -16 14 -28z m195 -189 c2
-22 0 -50 -4 -62 -7 -21 -7 -22 -15 -2 -7 18 -8 18 -8 -4 -1 -23 -2 -24 -15
-6 -7 10 -11 28 -9 39 4 17 3 18 -6 6 -16 -22 -13 -3 4 30 8 16 23 31 32 33
10 3 18 5 19 6 0 0 1 -17 2 -40z"/>
<path d="M5720 1621 c0 -27 2 -28 38 -26 75 4 72 10 72 -156 l0 -149 33 0 32
0 0 152 0 153 53 0 c50 0 52 1 52 28 l0 27 -140 0 -140 0 0 -29z m140 -143 c0
-10 5 -18 10 -18 6 0 10 -8 10 -17 0 -15 -2 -16 -10 -3 -6 9 -10 10 -10 3 0
-6 5 -15 11 -19 8 -5 6 -10 -5 -16 -9 -5 -13 -14 -10 -20 4 -7 2 -8 -4 -4 -7
4 -12 34 -12 74 0 47 3 63 10 52 5 -8 10 -23 10 -32z m20 12 c0 -11 -2 -20 -4
-20 -2 0 -6 9 -9 20 -3 11 -1 20 4 20 5 0 9 -9 9 -20z"/>
<path d="M6510 1470 l0 -180 35 0 35 0 0 64 c0 36 3 67 8 69 4 3 19 3 33 0 20
-4 33 -19 57 -69 30 -61 34 -64 67 -64 19 0 35 2 35 5 0 2 -14 34 -32 70 l-32
65 26 27 c34 37 43 82 24 126 -21 52 -58 67 -166 67 l-90 0 0 -180z m188 149
c-10 -7 -10 -9 0 -9 6 0 12 -5 12 -10 0 -9 -20 -1 -50 18 -10 7 24 20 37 15
12 -5 12 -7 1 -14z m-158 -23 c0 -3 -4 -8 -10 -11 -5 -3 -10 -1 -10 4 0 6 5
11 10 11 6 0 10 -2 10 -4z m145 -16 c20 -16 19 -65 -1 -84 -9 -10 -33 -16 -60
-16 l-44 0 0 53 c0 30 3 57 8 61 10 11 80 0 97 -14z m-145 -30 c0 -5 -2 -10
-4 -10 -3 0 -8 5 -11 10 -3 6 -1 10 4 10 6 0 11 -4 11 -10z m-6 -50 c-8 -35
10 -61 34 -53 14 5 15 3 5 -8 -7 -7 -13 -22 -13 -33 0 -17 -2 -18 -10 -6 -7
11 -10 11 -10 2 0 -7 -4 -11 -9 -8 -9 6 -14 113 -5 127 10 17 13 9 8 -21z
m157 -95 c5 4 6 0 3 -8 -3 -10 1 -14 12 -14 9 1 19 -5 22 -13 5 -13 3 -13 -13
0 -17 14 -18 13 -12 -2 3 -10 4 -18 2 -18 -6 0 -35 57 -34 67 0 4 3 2 6 -5 2
-6 9 -10 14 -7z m69 -93 c0 -5 -7 -9 -15 -9 -8 0 -12 4 -9 9 3 4 9 8 15 8 5 0
9 -4 9 -8z"/>
<path d="M6885 1478 c-33 -94 -61 -176 -63 -180 -2 -4 14 -8 36 -8 37 0 39 2
51 40 l12 40 73 0 73 0 12 -40 c11 -38 14 -40 51 -40 l38 0 -35 98 c-19 53
-48 133 -63 177 l-27 80 -49 3 -49 3 -60 -173z m135 36 c11 -36 20 -70 20 -75
0 -5 -22 -9 -49 -9 l-49 0 19 62 c23 77 27 88 33 88 3 0 14 -30 26 -66z m36
48 c1 -7 3 -14 4 -17 1 -3 3 -8 5 -12 1 -5 4 -15 7 -23 18 -46 19 -53 5 -42
-8 7 -17 9 -20 6 -9 -10 -20 43 -11 57 4 7 3 9 -3 6 -13 -8 -26 20 -17 34 7
13 29 6 30 -9z m-100 -29 c-6 -21 -9 -24 -17 -12 -12 19 -11 32 1 24 6 -3 10
2 10 11 0 10 3 15 6 11 4 -3 3 -18 0 -34z"/>
<path d="M7195 1553 c19 -54 47 -134 63 -178 l29 -80 44 0 43 0 62 170 c35 94
63 173 63 178 1 4 -16 7 -37 7 l-38 0 -21 -67 c-12 -38 -31 -101 -43 -140 -20
-68 -40 -95 -40 -56 0 9 -3 14 -6 10 -3 -3 -3 -15 1 -26 7 -24 35 -28 35 -5 0
14 2 14 15 0 23 -23 3 -56 -33 -56 -24 0 -31 7 -46 43 -10 23 -24 56 -32 74
-19 42 -18 62 2 37 8 -10 13 -13 9 -6 -3 6 -1 12 5 12 6 0 16 -14 22 -31 6
-16 13 -28 15 -25 3 3 -11 57 -31 120 l-37 116 -39 0 -39 0 34 -97z m16 68 c8
12 11 12 18 0 7 -10 4 -19 -7 -27 -14 -10 -18 -10 -24 4 -4 9 -7 22 -7 27 1 6
3 4 6 -4 5 -11 7 -11 14 0z m242 -56 c-3 -9 -8 -14 -10 -11 -3 3 -2 9 2 15 9
16 15 13 8 -4z m-72 -132 c-8 -15 -10 -15 -11 -2 0 17 10 32 18 25 2 -3 -1
-13 -7 -23z m20 -10 c-12 -20 -14 -14 -5 12 4 9 9 14 11 11 3 -2 0 -13 -6 -23z"/>
<path d="M7615 1638 c-3 -7 -27 -76 -54 -153 -27 -77 -54 -152 -60 -167 -10
-28 -10 -28 29 -28 37 0 40 2 51 40 l12 40 73 0 73 0 11 -40 c10 -38 13 -40
50 -40 l39 0 -51 143 c-27 78 -56 158 -62 177 -12 32 -16 35 -60 38 -31 2 -48
-1 -51 -10z m25 -18 c-9 -6 -9 -10 3 -16 13 -7 13 -12 3 -26 -8 -11 -17 -14
-26 -8 -11 7 -11 14 0 39 7 17 17 28 22 25 6 -4 5 -9 -2 -14z m68 -4 c2 -10 0
-16 -6 -12 -6 3 -13 0 -16 -6 -3 -7 -3 -3 0 9 4 18 2 22 -10 17 -9 -3 -16 -1
-16 6 0 19 44 7 48 -14z m-10 -116 c11 -35 19 -67 17 -70 -2 -3 -26 -3 -53 -2
l-50 4 25 75 c14 41 29 71 33 66 4 -4 17 -37 28 -73z m31 8 c11 -10 13 -10 7
0 -4 6 -4 12 -1 12 8 0 35 -65 35 -84 0 -9 -7 -12 -19 -9 -12 3 -25 22 -34 49
-15 45 -11 54 12 32z"/>
<path d="M7890 1470 l0 -180 114 0 115 0 -1 30 -1 30 -79 0 -78 0 0 150 0 150
-35 0 -35 0 0 -180z"/>
<path d="M8180 1470 l0 -180 115 0 115 0 0 30 0 30 -86 0 -85 0 3 48 3 47 78
3 c74 3 77 4 77 27 0 23 -3 24 -77 27 l-78 3 0 45 0 45 83 -4 82 -3 0 31 0 31
-115 0 -115 0 0 -180z m193 8 c12 3 18 1 14 -4 -4 -4 -19 -10 -32 -11 -20 -3
-23 0 -18 14 4 9 8 12 10 6 2 -6 14 -8 26 -5z m-151 -110 c-9 -9 -12 -9 -12 1
0 7 -5 9 -12 5 -9 -5 -8 -2 1 10 10 12 17 14 25 6 7 -7 6 -14 -2 -22z"/>
<path d="M8480 1471 l0 -181 36 0 36 0 -3 120 c-2 66 -1 120 2 120 3 0 27 -54
54 -120 41 -100 52 -120 70 -120 18 0 28 18 65 113 24 61 47 116 52 122 4 5 8
-46 8 -113 l0 -122 35 0 35 0 0 180 0 180 -45 0 c-38 0 -47 -4 -55 -22 -74
-177 -90 -213 -97 -215 -4 -2 -18 23 -30 55 -12 31 -33 84 -47 117 -25 60 -25
60 -70 63 l-46 3 0 -180z m370 157 c0 -4 -13 -8 -30 -8 -16 0 -30 3 -30 8 0 4
14 7 30 7 17 1 30 -3 30 -7z m-270 -58 c0 -13 -1 -13 -10 0 -5 8 -10 22 -10
30 0 13 1 13 10 0 5 -8 10 -22 10 -30z m268 -9 c-2 -25 -6 -45 -10 -43 -5 1
-8 5 -7 9 0 3 -6 10 -15 15 -30 17 -15 65 20 65 12 0 14 -11 12 -46z m-329 5
c2 19 29 24 35 8 3 -8 2 -13 -3 -10 -9 6 -21 -40 -21 -80 0 -13 -4 -24 -10
-24 -5 0 -10 -7 -10 -17 0 -29 -11 -6 -16 33 -3 22 -2 59 2 84 6 40 8 42 15
20 4 -14 7 -20 8 -14z m156 -194 c11 -2 22 -6 24 -8 8 -8 -14 -59 -24 -58 -11
1 -29 36 -39 74 -6 21 -5 23 6 10 7 -8 22 -17 33 -18z m172 -4 c-3 -8 -6 -5
-6 6 -1 11 2 17 5 13 3 -3 4 -12 1 -19z m-17 -33 c0 -19 -4 -35 -9 -35 -5 0
-8 12 -6 28 2 15 4 30 4 35 1 4 3 7 6 7 3 0 5 -16 5 -35z"/>
<path d="M8940 1470 l0 -180 120 0 120 0 0 30 0 30 -86 0 -85 0 3 48 3 47 78
3 c74 3 77 4 77 27 0 24 -2 25 -80 25 l-80 0 0 45 c0 51 -4 49 113 46 l57 -2
0 30 0 31 -120 0 -120 0 0 -180z m52 65 c3 3 6 -6 6 -20 0 -14 -6 -25 -13 -25
-8 0 -16 -6 -18 -12 -3 -7 -6 12 -6 42 0 50 1 53 12 32 7 -12 16 -20 19 -17z
m158 -64 c0 -6 -10 -8 -21 -6 -33 6 -36 15 -6 15 15 0 27 -4 27 -9z m-159 -56
c5 4 9 -3 9 -13 0 -11 -9 -22 -20 -25 -17 -4 -20 0 -20 31 1 30 2 34 11 19 6
-9 14 -15 20 -12z"/>
<path d="M9250 1469 l0 -180 33 3 32 3 5 115 5 114 51 -74 c111 -164 107 -159
142 -160 l32 0 0 180 0 180 -35 0 -34 0 -3 -120 -3 -120 -65 95 c-36 52 -72
106 -80 120 -11 18 -24 25 -47 25 l-33 0 0 -181z m84 122 c7 -14 11 -32 8 -40
-3 -8 0 -11 6 -7 6 3 13 2 17 -4 9 -15 -18 -12 -42 5 -16 12 -22 12 -26 2 -3
-6 -4 11 -3 40 1 56 14 57 40 4z m196 28 c0 -12 -7 -19 -20 -19 -13 0 -20 7
-20 18 0 11 8 18 20 19 14 1 20 -4 20 -18z m-250 -73 c0 -26 -6 -18 -14 19 -5
22 -4 26 4 15 5 -8 10 -24 10 -34z m238 -237 c-19 -13 -21 -12 -48 28 -43 64
-44 69 -9 38 l33 -30 -19 30 c-13 21 -14 26 -3 18 8 -7 18 -10 21 -6 4 3 7 -5
7 -18 0 -18 2 -21 9 -9 6 8 7 18 5 22 -3 5 -2 18 3 31 6 16 9 7 11 -37 2 -41
-1 -62 -10 -67z m-218 11 c0 -5 -5 -10 -11 -10 -5 0 -7 5 -4 10 3 6 8 10 11
10 2 0 4 -4 4 -10z"/>
<path d="M9312 1580 c7 -11 17 -20 22 -20 5 0 1 9 -9 20 -10 11 -20 20 -22 20
-2 0 2 -9 9 -20z"/>
<path d="M9600 1623 c0 -27 2 -28 52 -28 l53 0 3 -152 3 -153 34 0 35 0 0 155
0 155 54 0 c51 0 54 1 52 25 l-1 25 -142 0 -143 0 0 -27z m40 -3 c-19 -13 -30
-13 -30 0 0 6 10 10 23 10 18 0 19 -2 7 -10z m92 -84 c-6 -49 -13 -46 -10 3 1
22 5 38 8 36 3 -2 4 -20 2 -39z m4 -72 c-3 -8 0 -13 7 -11 6 1 13 -8 15 -19 2
-15 -3 -23 -17 -27 -19 -5 -21 -1 -21 40 0 29 4 42 11 38 6 -4 8 -13 5 -21z"/>
<path d="M10840 1618 c-24 -69 -110 -321 -110 -324 0 -2 16 -4 35 -4 31 0 35
3 46 40 l12 40 73 0 73 0 12 -40 c11 -38 14 -40 51 -40 21 0 38 2 38 4 0 2
-24 70 -54 152 -30 82 -57 161 -61 177 -7 25 -11 27 -55 27 -45 0 -49 -2 -60
-32z m47 8 c0 -8 -6 -12 -14 -9 -7 3 -13 9 -13 14 0 5 6 9 13 9 8 0 14 -6 14
-14z m-29 -41 c-6 -14 -13 -24 -14 -22 -6 6 9 47 17 47 5 0 3 -11 -3 -25z m68
-82 c13 -37 24 -72 24 -76 0 -7 -89 1 -98 8 -2 2 7 35 19 74 13 39 25 69 27
66 2 -2 15 -35 28 -72z m64 -28 c0 -44 -27 -39 -44 9 -5 14 -2 17 9 12 8 -3
15 -1 15 5 0 6 5 7 10 4 6 -3 10 -17 10 -30z m-199 -119 c12 7 11 -17 0 -35
-10 -16 -41 -24 -41 -11 0 20 23 64 27 52 3 -6 9 -10 14 -6z"/>
<path d="M11122 1470 l-2 -180 35 0 35 0 0 65 0 65 35 0 c33 0 37 -3 67 -65
31 -63 34 -65 70 -65 21 0 38 3 38 6 0 4 -16 32 -35 64 -19 32 -35 61 -35 65
0 4 11 18 25 31 51 47 44 132 -14 171 -29 20 -47 23 -126 23 l-91 0 -2 -180z
m208 157 c33 -15 69 -115 38 -105 -13 5 -54 -49 -50 -65 1 -4 -3 -17 -9 -29
-6 -11 -7 -18 -1 -15 5 4 14 -5 21 -19 16 -35 14 -42 -5 -16 -8 12 -19 20 -23
17 -5 -2 -13 7 -19 20 -6 14 -8 24 -4 24 4 -1 14 -1 22 1 11 1 9 4 -5 9 -11 5
-24 6 -30 3 -15 -10 -34 -11 -39 -3 -3 4 3 8 12 9 47 5 59 11 79 40 41 61 2
107 -97 115 -36 3 -59 3 -52 0 15 -6 17 -113 1 -113 -5 0 -8 4 -5 8 3 5 -1 20
-9 35 -8 15 -10 27 -4 27 5 0 9 5 9 11 0 5 -4 7 -10 4 -6 -4 -10 6 -10 22 l0
29 88 -1 c48 -1 94 -5 102 -8z m-32 -43 c26 -18 30 -65 6 -88 -10 -10 -33 -16
-65 -16 l-49 0 0 60 0 60 43 0 c23 0 53 -7 65 -16z m72 -82 c0 -5 -9 -17 -20
-27 -23 -21 -26 -14 -8 15 13 20 28 27 28 12z"/>
<path d="M11330 1590 c0 -5 5 -10 11 -10 5 0 7 5 4 10 -3 6 -8 10 -11 10 -2 0
-4 -4 -4 -10z"/>
<path d="M11345 1560 c3 -5 8 -10 11 -10 2 0 4 5 4 10 0 6 -5 10 -11 10 -5 0
-7 -4 -4 -10z"/>
<path d="M11455 1470 l0 -180 35 0 35 0 0 67 0 68 30 0 c25 0 34 -8 66 -65 24
-44 43 -66 58 -68 11 -2 21 2 21 8 0 7 -7 10 -15 7 -8 -4 -17 -2 -20 3 -4 6 1
10 10 10 10 0 13 5 9 13 -5 8 -2 8 9 -2 9 -7 17 -20 17 -27 0 -8 5 -14 10 -14
15 0 13 7 -25 75 l-36 63 31 30 c25 25 30 39 30 77 0 89 -40 115 -179 115
l-86 0 0 -180z m180 110 c20 -16 19 -65 -1 -84 -10 -10 -33 -16 -65 -16 l-49
0 0 48 c0 26 6 54 13 61 14 15 80 9 102 -9z m-144 -44 c13 8 11 -10 -3 -25 -7
-8 -8 -11 -2 -8 13 7 33 -32 27 -50 -3 -7 -13 -13 -24 -13 -17 0 -19 7 -18 58
0 31 3 51 6 44 2 -6 9 -10 14 -6z m108 -93 c0 -10 -3 -13 -5 -8 -2 6 -20 9
-39 7 -21 -3 -35 0 -35 7 0 6 17 11 40 11 32 0 40 -4 39 -17z m41 -8 c0 -8 -4
-15 -10 -15 -5 0 -7 7 -4 15 4 8 8 15 10 15 2 0 4 -7 4 -15z m-131 -17 c0 -7
-4 -22 -9 -33 -7 -17 -9 -15 -9 13 -1 17 4 32 9 32 6 0 10 -6 9 -12z m165 -44
c5 -14 4 -15 -9 -4 -17 14 -19 20 -6 20 5 0 12 -7 15 -16z"/>
<path d="M11790 1470 l0 -180 120 0 120 0 0 30 0 30 -86 0 -85 0 3 48 3 47 73
3 c69 3 72 4 72 27 0 24 -2 25 -75 25 l-75 0 0 50 0 50 83 1 c52 0 75 3 62 8
-11 5 -23 7 -27 5 -4 -3 -9 0 -13 6 -4 6 6 10 24 10 16 0 33 5 36 10 4 6 -37
10 -114 10 l-121 0 0 -180z m142 148 c-8 -8 -20 -8 -44 -1 l-33 11 45 1 c33 1
41 -2 32 -11z m-101 -222 c5 3 9 -11 9 -31 0 -20 -4 -34 -10 -30 -5 3 -7 13
-4 23 5 13 4 14 -4 3 -5 -7 -7 -22 -5 -32 3 -10 1 -19 -4 -19 -5 0 -10 14 -11
31 -3 36 9 81 15 61 3 -6 9 -10 14 -6z m142 -73 c-7 -2 -21 -2 -30 0 -10 3 -4
5 12 5 17 0 24 -2 18 -5z"/>
<path d="M12092 1470 l-4 -180 116 0 116 0 0 30 0 29 -77 3 -78 3 -3 148 -3
147 -32 0 -32 0 -3 -180z m41 143 c-10 -8 -12 -12 -5 -8 6 3 13 0 13 -7 6 -67
6 -85 -2 -98 -6 -11 -8 -11 -9 -2 0 7 -4 10 -10 7 -6 -4 -10 20 -10 63 0 65 1
70 20 65 19 -5 20 -6 3 -20z"/>
<path d="M12425 1478 c-33 -94 -62 -176 -64 -181 -2 -4 14 -7 35 -5 33 3 39 7
49 38 10 29 18 36 46 40 19 3 53 3 75 2 38 -4 42 -7 53 -43 11 -37 14 -39 50
-39 l38 0 -44 123 c-25 67 -54 148 -65 180 l-20 57 -47 0 -47 0 -59 -172z
m150 126 c18 -44 18 -41 -1 -48 -8 -3 -12 -2 -9 4 3 6 -1 10 -9 10 -20 0 -20
5 4 -65 11 -32 20 -62 20 -67 0 -4 -23 -8 -51 -8 -45 0 -50 2 -44 18 31 76 41
154 15 112 -6 -10 -12 -11 -18 -5 -12 13 5 75 19 75 6 0 8 -8 5 -17 -5 -16 -5
-16 6 -2 11 13 23 21 45 28 2 1 10 -15 18 -35z m-115 -185 c3 -3 25 -10 50
-16 l45 -11 -41 -1 c-42 -1 -64 -13 -83 -46 -12 -19 -12 -18 -7 5 5 24 4 24
-9 6 -18 -24 -19 -16 -4 34 10 34 33 48 49 29z m208 -73 c12 -28 5 -45 -19
-46 -6 0 -17 31 -25 68 -5 25 31 6 44 -22z"/>
<path d="M12533 1605 c-18 -20 -16 -25 11 -23 20 2 23 5 15 20 -11 21 -11 21
-26 3z"/>
<path d="M12813 1630 c-97 -59 -97 -261 -1 -320 24 -14 50 -20 95 -20 55 0 66
3 97 31 35 31 56 79 56 132 0 27 0 27 -69 27 -65 0 -69 -1 -73 -25 -5 -23 -3
-25 35 -25 23 0 48 7 58 16 16 14 18 14 27 -3 11 -19 -12 -92 -25 -80 -3 4
-12 2 -20 -5 -11 -9 -12 -7 -6 7 6 18 5 18 -17 2 -34 -23 -91 -22 -123 4 -53
41 -56 152 -5 199 35 33 93 30 125 -6 14 -15 33 -24 53 -24 42 0 39 23 -9 71
-37 37 -42 39 -102 39 -46 0 -73 -6 -96 -20z m178 -17 c13 -15 12 -15 -8 -4
-24 12 -29 21 -14 21 5 0 15 -7 22 -17z m-196 -142 c0 -38 -3 -67 -7 -64 -5 2
-9 12 -9 21 -1 9 -5 4 -9 -13 -5 -19 -6 -2 -4 45 1 41 3 76 3 78 1 1 7 2 14 2
8 0 12 -21 12 -69z m211 -18 c-10 -10 -76 -11 -76 -1 0 4 19 8 42 8 23 0 38
-3 34 -7z"/>
<path d="M13129 1588 c0 -35 -1 -83 -1 -108 -1 -25 0 -78 1 -117 l1 -73 115 0
115 0 0 30 0 30 -85 0 -85 0 0 34 c0 62 5 66 86 66 72 0 74 1 74 25 0 23 -3
24 -77 27 l-78 3 0 45 0 45 83 0 82 0 0 28 0 27 -115 0 -115 0 -1 -62z m41 43
c0 -5 8 -8 18 -6 9 1 11 0 5 -2 -8 -3 -13 -22 -13 -48 0 -38 -2 -43 -20 -38
-17 4 -20 14 -20 54 0 37 4 49 15 49 8 0 15 -4 15 -9z m153 -158 c-7 -2 -19
-2 -25 0 -7 3 -2 5 12 5 14 0 19 -2 13 -5z m-140 -144 c3 -12 -3 -19 -19 -22
-21 -4 -24 -1 -24 29 0 31 2 33 19 22 11 -7 22 -20 24 -29z"/>
<path d="M2440 1513 c0 -24 28 -33 93 -28 54 4 67 2 67 -10 0 -11 -13 -15 -57
-14 -88 1 -93 0 -92 -18 0 -11 3 -13 6 -5 3 8 29 12 79 12 72 0 74 1 74 25 0
24 -2 25 -73 25 -43 0 -78 5 -85 12 -8 8 -12 8 -12 1z"/>
<path d="M6170 1451 l0 -31 78 0 79 0 -5 28 c-4 27 -5 28 -78 31 l-74 2 0 -30z
m140 -1 c0 -5 -9 -9 -20 -7 -30 5 -32 12 -5 15 14 1 25 -3 25 -8z"/>
<path d="M10050 1450 l0 -30 75 0 75 0 0 28 c0 27 -1 27 -75 30 l-75 3 0 -31z
m137 4 c-3 -3 -12 -4 -19 -1 -8 3 -5 6 6 6 11 1 17 -2 13 -5z"/>
<path d="M7333 1343 c-13 -2 -23 -9 -23 -14 0 -13 43 -5 48 9 2 7 2 11 0 11
-1 -1 -13 -4 -25 -6z"/>
<path d="M2529 908 c0 -2 -2 -10 -4 -19 -1 -9 -6 -31 -10 -48 -9 -42 9 -40 30
5 17 35 15 64 -5 64 -5 0 -10 -1 -11 -2z"/>
<path d="M3824 902 c-17 -10 -14 -324 4 -330 9 -3 12 35 12 167 0 94 -1 171
-2 171 -2 0 -8 -4 -14 -8z"/>
<path d="M8367 903 c-4 -3 -7 -33 -7 -66 l0 -60 -23 21 c-84 79 -196 -57 -142
-173 26 -54 113 -76 135 -35 13 24 30 26 30 4 0 -9 5 -14 11 -12 7 2 10 55 10
163 -1 88 -3 161 -5 162 -1 2 -6 0 -9 -4z m-38 -129 c26 -22 31 -33 31 -70 0
-84 -42 -128 -99 -104 -86 35 -62 191 31 199 3 1 20 -11 37 -25z"/>
<path d="M2290 741 c0 -136 2 -160 16 -165 9 -3 51 -6 95 -6 64 0 79 3 79 15
0 12 -16 15 -80 15 l-80 0 0 150 c0 127 -2 150 -15 150 -13 0 -15 -24 -15
-159z"/>
<path d="M3962 738 c4 -216 22 -214 26 2 2 139 0 160 -13 160 -13 0 -15 -21
-13 -162z"/>
<path d="M7292 883 c2 -10 10 -18 18 -18 8 0 16 8 18 18 2 12 -3 17 -18 17
-15 0 -20 -5 -18 -17z"/>
<path d="M10804 889 c-3 -6 -1 -16 4 -21 13 -13 45 8 36 23 -7 12 -31 11 -40
-2z"/>
<path d="M11277 874 c-4 -4 -7 -18 -7 -31 0 -13 -6 -23 -14 -23 -24 0 -30 -21
-7 -27 19 -5 21 -12 21 -92 0 -74 3 -91 20 -109 12 -12 32 -22 45 -22 34 0 31
13 -5 27 l-31 12 3 93 3 93 30 6 c28 6 22 11 -15 13 -8 1 -17 12 -18 26 -4 29
-15 43 -25 34z"/>
<path d="M2723 813 c-12 -2 -34 -18 -48 -34 -20 -25 -25 -41 -25 -86 0 -49 4
-59 34 -89 27 -27 42 -34 74 -34 38 0 92 30 92 51 0 14 -26 11 -40 -6 -7 -8
-29 -15 -49 -15 -43 0 -81 32 -81 68 0 21 4 22 90 22 l90 0 -6 33 c-9 44 -30
76 -60 87 -26 10 -33 10 -71 3z m80 -40 c8 -10 17 -27 19 -38 3 -18 -3 -20
-67 -20 -57 0 -70 3 -73 17 -9 46 87 79 121 41z"/>
<path d="M2950 808 c0 -7 14 -33 30 -58 16 -25 30 -49 30 -54 0 -5 -14 -31
-31 -58 -22 -33 -29 -52 -22 -59 7 -7 21 7 43 42 l32 53 20 -24 c48 -62 71
-84 75 -73 2 6 -12 34 -31 61 -20 27 -36 53 -36 58 0 5 16 33 35 61 19 29 31
54 26 58 -12 7 -31 -13 -56 -58 -11 -20 -23 -37 -26 -37 -4 0 -21 23 -39 50
-31 49 -50 63 -50 38z"/>
<path d="M3272 807 c-71 -40 -80 -165 -15 -217 44 -34 120 -24 143 20 19 35 0
42 -30 10 -35 -38 -63 -38 -101 -1 -60 60 -27 171 50 173 24 1 40 -5 52 -20
18 -22 39 -29 39 -13 0 5 -14 21 -31 35 -33 28 -71 33 -107 13z"/>
<path d="M3559 805 c-51 -27 -70 -124 -37 -187 25 -51 120 -63 161 -22 36 36
23 51 -16 18 -38 -32 -80 -27 -115 12 -42 48 -28 59 71 59 l87 0 0 27 c0 83
-79 132 -151 93z m75 -15 c21 -8 56 -54 56 -75 0 -3 -36 -5 -80 -5 -92 0 -101
11 -51 61 32 32 38 33 75 19z"/>
<path d="M4148 803 c-35 -22 -48 -53 -48 -113 0 -40 5 -56 28 -81 38 -42 104
-51 145 -19 49 39 28 56 -23 19 -45 -34 -112 -6 -126 54 l-6 27 89 0 c49 0 92
2 95 6 3 3 2 22 -3 42 -16 72 -89 103 -151 65z m103 -32 c49 -49 40 -61 -44
-61 -41 0 -76 3 -79 6 -13 12 7 47 36 65 42 25 52 24 87 -10z"/>
<path d="M4412 700 c4 -148 22 -167 26 -27 l3 98 31 13 c69 30 96 -2 100 -117
2 -52 7 -86 13 -85 12 4 7 186 -6 210 -14 26 -76 34 -110 14 -26 -15 -29 -15
-29 -2 0 9 -7 16 -15 16 -13 0 -15 -18 -13 -120z"/>
<path d="M4763 810 c-54 -22 -80 -119 -48 -180 33 -64 114 -82 160 -35 26 25
32 45 15 45 -5 0 -21 -12 -35 -26 -20 -20 -32 -24 -53 -20 -85 20 -99 155 -21
197 24 12 74 -4 83 -27 3 -8 13 -14 22 -14 11 0 14 5 10 16 -3 9 -6 17 -6 20
0 2 -13 10 -30 19 -32 17 -64 18 -97 5z"/>
<path d="M5032 791 c-82 -83 -34 -221 78 -221 32 0 47 6 66 27 16 18 21 30 15
36 -7 7 -19 1 -36 -17 -22 -23 -32 -27 -58 -22 -40 8 -77 43 -77 73 0 22 2 23
90 23 l90 0 0 30 c0 44 -45 90 -96 97 -36 4 -44 1 -72 -26z m121 -23 c9 -11
17 -29 17 -39 0 -17 -8 -19 -75 -19 -87 0 -95 11 -45 62 25 24 36 29 58 24 15
-4 35 -16 45 -28z"/>
<path d="M5492 804 c-12 -8 -22 -22 -22 -30 0 -18 14 -18 29 0 33 40 111 20
111 -29 0 -20 -6 -25 -37 -30 -67 -11 -78 -14 -97 -28 -28 -20 -26 -75 3 -99
29 -22 88 -24 113 -1 17 15 18 15 18 -1 0 -10 6 -16 13 -14 8 3 13 35 15 101
3 92 1 98 -22 122 -30 29 -89 34 -124 9z m118 -141 c0 -33 -36 -73 -65 -73
-49 0 -83 52 -51 79 15 13 96 30 109 24 4 -2 7 -16 7 -30z"/>
<path d="M5760 716 c0 -101 1 -105 26 -125 34 -27 78 -27 104 -1 26 26 33 25
25 -1 -5 -15 -3 -20 6 -17 10 3 15 33 17 113 3 103 -2 145 -14 132 -3 -3 -8
-45 -11 -94 -6 -101 -18 -123 -69 -123 -51 0 -64 27 -64 132 0 52 -4 88 -10
88 -6 0 -10 -41 -10 -104z"/>
<path d="M6258 803 c-35 -22 -44 -59 -22 -84 10 -11 41 -26 70 -35 63 -18 80
-47 44 -76 -29 -24 -62 -23 -85 2 -19 21 -45 27 -45 11 0 -21 54 -51 91 -51
47 0 79 28 79 68 0 37 -24 58 -79 71 -63 14 -80 47 -39 75 30 21 54 20 78 -4
34 -34 53 -23 25 13 -19 26 -83 32 -117 10z"/>
<path d="M6542 804 c-58 -40 -71 -143 -24 -195 38 -42 104 -51 145 -19 49 39
28 56 -22 19 -26 -19 -33 -20 -66 -9 -26 9 -41 21 -50 43 -7 18 -11 35 -9 39
3 5 45 8 95 8 99 0 101 2 75 64 -26 61 -94 85 -144 50z m78 -14 c16 0 50 -43
50 -62 0 -16 -9 -18 -75 -18 -66 0 -75 2 -75 18 0 33 51 77 78 67 8 -3 18 -5
22 -5z"/>
<path d="M6805 809 c-10 -26 -1 -234 10 -232 6 2 11 42 13 90 2 73 6 91 24
110 11 12 29 21 39 20 10 -1 18 3 19 8 1 17 -46 17 -60 0 -11 -14 -14 -13 -26
2 -11 16 -13 16 -19 2z"/>
<path d="M6995 798 c4 -13 13 -36 20 -53 7 -16 24 -60 36 -97 18 -50 29 -68
42 -68 10 0 20 8 23 18 3 9 12 34 20 55 8 20 21 56 30 80 9 23 20 50 25 59 11
21 -9 37 -21 17 -5 -7 -23 -53 -40 -101 -17 -48 -35 -88 -38 -88 -4 0 -22 45
-41 100 -22 64 -39 100 -48 100 -10 0 -12 -7 -8 -22z"/>
<path d="M7299 816 c-8 -9 3 -246 12 -246 5 0 9 54 9 125 0 110 -5 137 -21
121z"/>
<path d="M7470 792 c-50 -50 -52 -148 -5 -192 14 -14 41 -24 69 -27 38 -5 48
-2 70 20 27 27 34 47 16 47 -5 0 -20 -11 -34 -25 -33 -33 -61 -32 -97 4 -51
51 -35 148 28 172 26 10 61 -3 76 -27 9 -16 37 -19 37 -5 0 5 -14 21 -31 35
-42 36 -91 35 -129 -2z"/>
<path d="M7783 810 c-41 -16 -65 -68 -60 -129 3 -46 9 -59 36 -83 44 -39 125
-36 153 6 21 31 -9 36 -35 6 -9 -11 -28 -20 -41 -20 -34 0 -86 46 -86 76 0 24
2 24 91 24 l91 0 -7 33 c-17 79 -74 114 -142 87z m94 -33 c6 -7 15 -24 18 -39
l7 -28 -76 0 c-68 0 -76 2 -76 19 0 31 58 74 89 66 14 -3 31 -12 38 -18z"/>
<path d="M8550 803 c-52 -36 -68 -86 -50 -153 21 -77 123 -108 178 -53 33 33
14 43 -26 13 -23 -17 -37 -20 -61 -15 -34 7 -71 47 -71 76 0 17 9 19 90 19 90
0 90 0 90 25 0 82 -86 132 -150 88z m94 -25 c14 -13 26 -32 28 -43 3 -18 -3
-20 -74 -23 -90 -3 -99 8 -49 59 35 35 61 37 95 7z"/>
<path d="M8958 815 c-3 -3 13 -54 34 -113 37 -101 61 -143 73 -130 6 5 38 87
55 138 4 14 15 42 24 62 10 24 12 39 6 43 -12 8 -54 -80 -71 -147 -6 -27 -15
-48 -19 -48 -5 0 -18 26 -30 58 -56 152 -56 152 -72 137z"/>
<path d="M9304 810 c-66 -27 -88 -140 -38 -199 70 -84 184 -31 184 86 0 92
-68 145 -146 113z m114 -74 c25 -76 -23 -157 -83 -142 -59 15 -89 88 -60 149
33 70 119 65 143 -7z"/>
<path d="M9591 807 c-63 -32 -53 -94 19 -115 25 -7 52 -17 60 -21 18 -10 26
-49 12 -63 -16 -16 -82 -11 -102 7 -28 25 -46 14 -23 -14 28 -34 99 -40 136
-11 49 39 26 103 -42 115 -56 9 -75 26 -68 57 10 37 52 45 89 18 31 -23 44
-21 34 5 -6 16 -46 35 -74 35 -9 0 -28 -6 -41 -13z"/>
<path d="M9996 812 c-2 -4 -3 -54 -1 -112 2 -58 4 -131 4 -162 1 -32 6 -58 11
-58 6 0 10 29 10 66 l0 65 26 -20 c31 -25 64 -27 103 -6 71 36 67 198 -5 225
-41 16 -76 12 -101 -12 l-23 -21 0 21 c0 21 -14 30 -24 14z m143 -38 c27 -22
31 -32 31 -76 0 -61 -11 -82 -50 -98 -25 -10 -34 -10 -55 4 -64 42 -58 159 9
186 31 13 32 12 65 -16z"/>
<path d="M10310 695 c0 -77 4 -125 10 -125 6 0 10 38 10 93 0 92 1 94 29 115
17 12 37 19 45 16 11 -4 16 0 16 10 0 21 -38 21 -62 0 -16 -16 -18 -16 -24 0
-16 42 -24 6 -24 -109z"/>
<path d="M10553 810 c-57 -23 -81 -126 -43 -187 25 -42 54 -56 103 -50 58 8
80 35 85 105 8 111 -55 168 -145 132z m66 -21 c86 -30 78 -174 -11 -195 -22
-5 -34 0 -58 24 -25 25 -30 39 -30 77 0 38 5 52 29 76 34 34 29 32 70 18z"/>
<path d="M10816 813 c-3 -3 -6 -68 -6 -144 l0 -137 -27 -20 c-26 -19 -27 -21
-9 -28 14 -5 25 0 43 20 22 26 23 35 23 166 0 126 -6 161 -24 143z"/>
<path d="M11001 807 c-35 -21 -50 -55 -50 -117 -1 -79 38 -120 112 -120 33 0
87 31 87 51 0 14 -22 11 -42 -8 -41 -37 -127 -4 -128 50 l0 27 84 0 c47 0 87
4 90 8 9 15 -13 78 -33 96 -26 23 -90 30 -120 13z m88 -21 c6 -4 18 -21 26
-37 13 -25 14 -30 2 -35 -24 -9 -140 1 -144 12 -2 6 9 25 25 42 28 30 61 36
91 18z"/>
<path d="M11492 810 c-35 -15 -48 -54 -28 -85 18 -28 19 -28 83 -45 52 -13 67
-45 33 -72 -31 -25 -67 -22 -95 7 -13 15 -26 22 -29 16 -18 -28 30 -61 88 -61
47 0 90 41 81 78 -8 34 -30 51 -77 58 -69 11 -88 63 -31 85 22 8 32 6 54 -11
40 -28 62 -25 41 6 -20 31 -75 41 -120 24z"/>
<path d="M11733 604 c-8 -20 17 -36 34 -22 10 8 10 14 2 24 -15 18 -28 18 -36
-2z"/>
</g>
</svg>
